<svg xmlns="http://www.w3.org/2000/svg" viewBox="0 0 750 500"><g id="freepik--Table--inject-12"><path d="M712.46,474.52c0,.14-151.1.26-337.44.26s-337.48-.12-337.48-.26,151.06-.26,337.48-.26S712.46,474.37,712.46,474.52Z" style="fill:#263238"></path></g><g id="freepik--speech-bubble-2--inject-12"><path d="M485.62,151.71l-14.23.72a45.53,45.53,0,1,1,6.81-14.81l0,0Z" style="fill:#fff"></path><path d="M485.62,151.71l-.51-.93-1.45-2.7-5.57-10.42h.25v0a.15.15,0,0,1-.2.05.14.14,0,0,1-.06-.16,45.55,45.55,0,0,0,0-22.38,44.78,44.78,0,0,0-2.26-6.63,50.47,50.47,0,0,0-3.56-6.59,45.12,45.12,0,0,0-83,26,46,46,0,0,0,5.49,20,44.44,44.44,0,0,0,12.89,14.71,45.33,45.33,0,0,0,32.89,8.35l1.92-.3a13.16,13.16,0,0,0,1.87-.37l3.6-.94a66,66,0,0,0,6.54-2.63,45.24,45.24,0,0,0,16.92-14.46.24.24,0,0,1,.11-.06l10.54-.44,2.74-.11c.62,0,.95,0,.95,0l-.89.07-2.7.16-10.63.62.1-.05a45.23,45.23,0,0,1-17,14.67,60,60,0,0,1-6.59,2.69l-3.63,1a11.73,11.73,0,0,1-1.89.39l-1.93.31a45.77,45.77,0,0,1-33.3-8.37,45,45,0,0,1-13.09-14.87,46.57,46.57,0,0,1-5.58-20.3,45.49,45.49,0,0,1,4.54-21.57,20.35,20.35,0,0,1,1.28-2.45l1.38-2.38,1.59-2.24A18.55,18.55,0,0,1,399,97.19l1.78-2.06c.58-.7,1.29-1.26,1.92-1.9s1.29-1.26,2-1.82l2.12-1.64a44.94,44.94,0,0,1,18.86-8.34,45.85,45.85,0,0,1,35.79,8.25,45.27,45.27,0,0,1,11.18,12,50.22,50.22,0,0,1,3.57,6.67,44.52,44.52,0,0,1,2.26,6.71,45.39,45.39,0,0,1-.11,22.55l-.26-.1v0a.14.14,0,0,1,.19-.06.12.12,0,0,1,.06.06l5.46,10.59,1.38,2.7C485.49,151.42,485.62,151.71,485.62,151.71Z" style="fill:#263238"></path><path d="M455.72,121.18a13,13,0,0,0-3.41-7.06,12.46,12.46,0,0,0-6.56-4,10.09,10.09,0,0,0-11.1,5.3,10.11,10.11,0,0,0-11-4.73,12.62,12.62,0,0,0-6.51,4.08,13,13,0,0,0-3.29,7.11,16,16,0,0,0,2.05,9.76,22.56,22.56,0,0,0,7.81,7.19c5.08,3,11.77,6.76,11.77,6.76s5.59-4.25,10.63-7.34a22.53,22.53,0,0,0,7.68-7.32A15.82,15.82,0,0,0,455.72,121.18Z" style="fill:#FF725E"></path></g><g id="freepik--speech-bubble-1--inject-12"><path d="M247.42,184.6l14.25-.08A45.51,45.51,0,1,0,254,170.11v0Z" style="fill:#fff"></path><path d="M247.42,184.6s.17-.33.46-.95l1.3-2.78c1.14-2.45,2.8-6,5-10.72l-.25,0v0a.15.15,0,0,0,.2.05.18.18,0,0,0,.06-.17A45.36,45.36,0,0,1,253,147.72a44.59,44.59,0,0,1,1.88-6.74A50.58,50.58,0,0,1,258,134.2a45.11,45.11,0,0,1,84.37,21.29,46,46,0,0,1-4.35,20.3A44.48,44.48,0,0,1,326,191.19a45.29,45.29,0,0,1-32.37,10.19l-1.93-.19a13.23,13.23,0,0,1-1.89-.27l-3.65-.74a63.57,63.57,0,0,1-6.67-2.26,45.19,45.19,0,0,1-17.71-13.48.13.13,0,0,0-.11-.05l-10.55.14-2.75.05-1,0,.9,0H251l10.65,0-.11,0a45.38,45.38,0,0,0,17.76,13.7,61.72,61.72,0,0,0,6.73,2.31l3.68.76a13.32,13.32,0,0,0,1.91.28l1.95.2a45.79,45.79,0,0,0,32.78-10.22,45,45,0,0,0,12.23-15.59A46.43,46.43,0,0,0,343,155.48a45.44,45.44,0,0,0-5.73-21.28,20.55,20.55,0,0,0-1.43-2.38l-1.51-2.3-1.71-2.15a18.48,18.48,0,0,0-1.79-2.06l-1.89-2a26.5,26.5,0,0,0-2-1.79c-.69-.57-1.35-1.19-2.07-1.71l-2.21-1.52a45.05,45.05,0,0,0-19.3-7.27,45.86,45.86,0,0,0-35.27,10.24A45.32,45.32,0,0,0,257.6,134a50.8,50.8,0,0,0-3.19,6.86,45.49,45.49,0,0,0-.5,29.34l.25-.12v0a.15.15,0,0,0-.2-.05l0,.06L249,180.92l-1.22,2.76C247.54,184.3,247.42,184.6,247.42,184.6Z" style="fill:#263238"></path><polygon points="274.2 158.36 280.55 151.34 294.01 162.14 314 139.18 320.54 145.55 293.7 175.07 274.2 158.36" style="fill:#FF725E"></polygon></g><g id="freepik--character-2--inject-12"><path d="M656.88,474.52a144.45,144.45,0,0,1-9.27-35.06c-2.9-20.73-2.9-38.15-3.31-40.22s-5.39-26.12-5.39-26.12l39.79-8.36s1.26,27,4.16,44.43,4.62,39.62,4.21,65.33Z" style="fill:#ffbf9d"></path><path d="M589.85,274.65l20.75-107.4c5.35-24.88-4.66-48.73-29.68-53.4l-2.33-.3a45.49,45.49,0,0,0-50.26,35.8c-4.53,21.59-9.25,45.5-10.59,57.22-2.77,24.27,21,31.11,21,31.11s-4.67,29.1-5.88,36.17l13,9.8,1.54-10.17Z" style="fill:#ffbf9d"></path><path d="M538.72,237.68s15.16,2.83,32.73-5.33c0,0-9.9,17.25-33.8,12Z" style="fill:#ff9a6c"></path><path d="M532.56,173.06a3.48,3.48,0,0,0,2.89,3.91,3.33,3.33,0,0,0,4-2.67,3.48,3.48,0,0,0-2.89-3.91A3.34,3.34,0,0,0,532.56,173.06Z" style="fill:#263238"></path><path d="M532.12,160.7c.37.51,3.24-1.1,7-.62s6.22,2.69,6.68,2.29c.22-.18-.11-1.05-1.19-2.07a9.6,9.6,0,0,0-5.28-2.39,9.22,9.22,0,0,0-5.61,1.06C532.43,159.7,531.94,160.47,532.12,160.7Z" style="fill:#263238"></path><path d="M565,177.11a3.49,3.49,0,0,0,2.9,3.91,3.33,3.33,0,0,0,4-2.66,3.5,3.5,0,0,0-2.89-3.92A3.34,3.34,0,0,0,565,177.11Z" style="fill:#263238"></path><path d="M568.51,166.19c.37.51,3.24-1.1,7-.62s6.21,2.69,6.67,2.29c.23-.18-.1-1.05-1.19-2.07a9.6,9.6,0,0,0-5.27-2.39,9.2,9.2,0,0,0-5.61,1.06C568.82,165.2,568.32,166,568.51,166.19Z" style="fill:#263238"></path><path d="M551.52,193.1c.05-.21-2.21-.9-5.9-1.85-.94-.22-1.82-.52-1.9-1.19a4.88,4.88,0,0,1,1-2.74l3.72-6.88c5.22-9.82,9.12-17.93,8.72-18.14s-4.94,7.58-10.15,17.39c-1.27,2.42-2.47,4.73-3.62,6.94-.5,1-1.27,2.19-1,3.67a2.42,2.42,0,0,0,1.39,1.59,6.8,6.8,0,0,0,1.59.43C549.14,193,551.48,193.31,551.52,193.1Z" style="fill:#263238"></path><path d="M568.78,154.39c.38,1,4.12.48,8.53.94s8,1.61,8.56.68c.26-.44-.38-1.39-1.83-2.35a14.86,14.86,0,0,0-13-1.24C569.41,153.1,568.61,153.91,568.78,154.39Z" style="fill:#263238"></path><path d="M533.34,149.73c.65,1,3.8.51,7.44,1s6.64,1.53,7.48.74c.37-.38,0-1.3-1.23-2.29a11.94,11.94,0,0,0-5.85-2.24,11.65,11.65,0,0,0-6.17.86C533.6,148.46,533.06,149.27,533.34,149.73Z" style="fill:#263238"></path><path d="M606.34,184.94c.44-.12,17.27-2.81,14.65,13.68s-18.65,10.46-18.61,10S606.34,184.94,606.34,184.94Z" style="fill:#ffbf9d"></path><path d="M608.42,203.15c.08,0,.25.25.7.55a3,3,0,0,0,2.15.39c1.84-.36,3.75-2.9,4.3-5.86a9.52,9.52,0,0,0-.15-4.24,3.34,3.34,0,0,0-1.81-2.55,1.47,1.47,0,0,0-1.82.52c-.29.42-.24.77-.33.78s-.31-.33-.07-1a1.89,1.89,0,0,1,.81-.93,2.22,2.22,0,0,1,1.66-.17,4.08,4.08,0,0,1,2.59,3,9.92,9.92,0,0,1,.27,4.76c-.64,3.3-2.84,6.14-5.33,6.45a3.11,3.11,0,0,1-2.56-.85C608.39,203.56,608.36,203.18,608.42,203.15Z" style="fill:#ff9a6c"></path><path d="M498.75,122.06a3.9,3.9,0,0,1,2.19-2c2.07-.82,4.22-.33,6.33,0a35.26,35.26,0,0,0,15.7-1.42,17.43,17.43,0,0,1-4-3.81c-2.25-3.08-3.14-7.4-1.36-10.77a2.34,2.34,0,0,1,1.54-1.38c1.12-.16,1.9,1,2.51,2,2,3.13,4.11,4.66,7.84,4.87a14.67,14.67,0,0,0,6.56-.87l.25-.19c1-.76,2-1.47,2.92-2.16h0c7.18-5.18,13.19-8.61,19-10,8.57-2,22.25-1.17,30.3,2.36S603.14,110.24,603,119c5.34-3.25,12.41-2.1,17.78,1.11l.15,0c6,3.28,8.6,10.6,9.46,17.42,0,.37.08.74.12,1.12a25.78,25.78,0,0,0,7.28,9.75c.56.45,1.2,1,1.16,1.73s-.72,1.21-1.36,1.53A13,13,0,0,1,632,153a29.32,29.32,0,0,0,1.41,4.83c.53,1.33,1.16,2.93.33,4.1a2.73,2.73,0,0,1-3,.79,8.13,8.13,0,0,1-2.77-1.82c.45,1.82.89,3.64,1.34,5.46a15.33,15.33,0,0,1-6.88-1.56c-2.32,5.88-5.11,17-7.33,20.89-4.39-.61-5.38-1.26-7.71-.87-3,.5-2.71,5.73-6.2,3.7-1.78-1-3.56-8.66-3.89-10.69a95.27,95.27,0,0,1,2.2-40.52,30.73,30.73,0,0,0-8.29-8.22l.24.3c-6.38-3.4-13.65-6.91-20.55-4.75-5.35,1.68-9.08,6.37-13.44,9.9-8.26,6.68-16.88,9.59-27.44,8.39-2.09,7.14-4.25,19-5.67,25.75l-3.67-14.52v.05c-.34-.87-.6-1.73-.85-2.6l-.09-.26v0c-.4-1.39-.76-2.77-1.31-4.17l-.07.05c-4.2,2.67-8.84-3.15-5.32-6.66a10,10,0,0,1,2.38-1.74,6.78,6.78,0,0,1-6.66.65,5.33,5.33,0,0,1-2.91-5.8,4.53,4.53,0,0,1,3.24-3.17,15.38,15.38,0,0,1-8.31-3.25C499.25,126,497.83,124.11,498.75,122.06Z" style="fill:#263238"></path><path d="M594.92,120.6a22,22,0,0,1,2.07,2.6,17.48,17.48,0,0,1,2.44,8.6,30.88,30.88,0,0,1-.34,6.24c-.34,2.22-.9,4.57-1.46,7.06A63,63,0,0,0,596.2,153a27.37,27.37,0,0,0-.11,4.26,8.82,8.82,0,0,0,1.06,4.32,3.68,3.68,0,0,0,3.23,1.68,5.42,5.42,0,0,0,3.34-1.25c1.84-1.56,2.59-3.8,3.29-5.77l-.51,0a20.51,20.51,0,0,0,2.14,5.52,7.29,7.29,0,0,0,4.3,3.3,4.79,4.79,0,0,0,2.55,0,4.16,4.16,0,0,0,2-1.4,4.26,4.26,0,0,0,.85-2.06,3.07,3.07,0,0,0-.48-2l-.29.19a15.54,15.54,0,0,0,4.57,4.71,14.18,14.18,0,0,0,1.51.88,2.42,2.42,0,0,0,.55.23,3.08,3.08,0,0,0-.5-.32c-.34-.2-.84-.5-1.45-.94a16.31,16.31,0,0,1-4.39-4.74l-.29.19a3.12,3.12,0,0,1-.4,3.61,3.67,3.67,0,0,1-1.77,1.24,4.31,4.31,0,0,1-2.31,0,6.8,6.8,0,0,1-4-3.12,20.25,20.25,0,0,1-2.05-5.39l-.22-.83-.3.81c-.7,2-1.46,4.11-3.14,5.52a4.89,4.89,0,0,1-3,1.11,3.11,3.11,0,0,1-2.75-1.42,8.4,8.4,0,0,1-1-4,27.67,27.67,0,0,1,.1-4.18,66.06,66.06,0,0,1,1.38-7.83c.55-2.48,1.09-4.85,1.42-7.11a31.39,31.39,0,0,0,.28-6.32,17.39,17.39,0,0,0-2.66-8.7A10,10,0,0,0,594.92,120.6Z" style="fill:#455a64"></path><path d="M516.51,132.35s0,.07.17.19l.53.54a8.14,8.14,0,0,0,.92.82,13.18,13.18,0,0,0,1.35,1,21.7,21.7,0,0,0,10,3.49,27.71,27.71,0,0,0,15.42-3.09c5.37-2.71,10.41-7.16,14.8-12.47,2.21-2.64,4.12-5.42,6.13-7.94a32.48,32.48,0,0,1,6.55-6.5,16.67,16.67,0,0,1,7.63-3.13,11.85,11.85,0,0,1,3.73.16,13,13,0,0,1,3.26,1.17,14.12,14.12,0,0,1,6.73,7.79,16.44,16.44,0,0,1,.67,3.81.67.67,0,0,0,0-.25c0-.21,0-.46,0-.76a12.42,12.42,0,0,0-.49-2.87,13.77,13.77,0,0,0-2.13-4.09,14.23,14.23,0,0,0-4.62-4,13.82,13.82,0,0,0-3.36-1.25,12.48,12.48,0,0,0-3.88-.19,17.13,17.13,0,0,0-7.87,3.17,33,33,0,0,0-6.69,6.58c-2,2.54-3.94,5.31-6.13,7.93a48,48,0,0,1-14.6,12.36A27.53,27.53,0,0,1,529.56,138a21.91,21.91,0,0,1-10-3.27A33.51,33.51,0,0,1,516.51,132.35Z" style="fill:#455a64"></path><path d="M516,121.39s.25.29.77.74a18.65,18.65,0,0,0,2.36,1.71,26.31,26.31,0,0,0,3.85,2,29,29,0,0,0,5.09,1.5,28.49,28.49,0,0,0,5.28.47,25,25,0,0,0,4.31-.42,19,19,0,0,0,2.82-.72,4.14,4.14,0,0,0,1-.4c0-.11-1.48.37-3.88.72a27.68,27.68,0,0,1-4.24.29,30.37,30.37,0,0,1-5.18-.5,31,31,0,0,1-5-1.43,29,29,0,0,1-3.84-1.83C517.21,122.28,516.05,121.31,516,121.39Z" style="fill:#455a64"></path><path d="M480.82,254.68s-9.31,93.67-12.21,127.62c-2.08,24.41-8.21,78.12-11.09,92.22H626.09s1.51-28.82,3.46-53c1.61-20.07,5.57-64.64,5.57-64.64,1.62.38,16.16-83.79,16.16-83.79s-58-22-56.81-21.47c.67.26-8.51,17.26-33.75,16.66-24.71-.59-24-18.32-24-18.32Z" style="fill:#FF725E"></path><path d="M694.27,389.66s-21.93-81.82-25.7-93c-6.53-19.34-17.29-23.61-17.29-23.61s-26.67,97-25.42,97,11.41,30.17,11.41,30.17Z" style="fill:#FF725E"></path><path d="M643.38,301.75a1.1,1.1,0,0,1,0,.27c0,.21-.07.47-.12.79-.12.73-.29,1.74-.51,3-.44,2.67-1.07,6.46-1.85,11.12-1.52,9.39-3.45,22.4-5.15,36.82s-2.8,27.52-3.49,37c-.32,4.72-.58,8.55-.76,11.25-.09,1.29-.16,2.32-.21,3.06,0,.32,0,.58-.06.79a.84.84,0,0,1-.05.27s0-.09,0-.27,0-.47,0-.8c0-.74.06-1.76.11-3.06.1-2.66.3-6.51.6-11.26.59-9.5,1.65-22.62,3.34-37.05s3.68-27.44,5.3-36.82c.81-4.69,1.5-8.48,2-11.09.25-1.28.45-2.28.6-3,.06-.32.12-.57.16-.78A1.62,1.62,0,0,1,643.38,301.75Z" style="fill:#263238"></path><path d="M558.62,200.1a1.58,1.58,0,0,0-.37-.7,1.65,1.65,0,0,0-1.38-.17c-2.77.5-9,1.28-11.75,1.78-.52,2.86,1,7.82,3.63,9a7.43,7.43,0,0,0,8-1.75A8.43,8.43,0,0,0,558.62,200.1Z" style="fill:#ff9a6c"></path><path d="M547.73,209.57c0-.08.46.08,1.23.25a8.34,8.34,0,0,0,3.3,0,7.21,7.21,0,0,0,4.09-2.36,7.51,7.51,0,0,0,1.71-5.44,7.06,7.06,0,0,0-.3-1.48,1,1,0,0,0-.26-.43.58.58,0,0,0-.42-.1c-.93.08-2,.24-2.94.35-1.91.23-3.64.42-5.08.57-2.9.29-4.7.4-4.72.26s1.75-.51,4.62-1c1.43-.25,3.14-.51,5-.8,1-.13,1.89-.29,3-.41a1.55,1.55,0,0,1,1.08.31,2,2,0,0,1,.6.89,7,7,0,0,1,.36,1.74,8.25,8.25,0,0,1-2,6.16,7.65,7.65,0,0,1-4.7,2.45,7.47,7.47,0,0,1-3.53-.34C548.07,209.91,547.7,209.62,547.73,209.57Z" style="fill:#263238"></path><path d="M423.26,219.55s13.83-25.76,16.55-27.23,9.43-6.29,14-4.61c0,0,4.82-7.75,10.89-6.49l2.51,1.67s6.08-3.35,8.38-.63l2.31,2.73s4.19-5.73,6.7-3.91,2.73,2.86,2.52,5.37-14.67,19.9-14.67,26.61,5.24,5.24,5.24,5.24,8.59-2.1,11.31-2.73,5.24,1.47,4.61,4-4.4,1.47-6.91,4.82-9,2.1-12.78,3.14-23.46,8-25.77,9.43S423.26,219.55,423.26,219.55Z" style="fill:#ffbf9d"></path><path d="M436.08,226.94a23.62,23.62,0,0,0,16.76-16.83,2.5,2.5,0,1,0-4.82-1.33,26.25,26.25,0,0,1-.84,2.6c-.07.17-.05.14,0-.09,0,.1-.08.2-.13.3s-.18.4-.28.59c-.19.4-.4.78-.61,1.16a20.53,20.53,0,0,1-1.52,2.28c.27-.35-.06.07-.15.18l-.43.5q-.44.49-.9,1a21.56,21.56,0,0,1-2,1.74c.42-.32-.15.11-.19.14l-.54.38-1.11.7c-.38.22-.77.43-1.16.62l-.59.29c-.14.07-.61.27-.2.1a21.32,21.32,0,0,1-2.7.89,2.52,2.52,0,0,0-1.75,3.07,2.56,2.56,0,0,0,3.08,1.75Z" style="fill:#ffbf9d"></path><path d="M511.48,177c-.64-.31-56,23.34-56,23.34L465,227.7l57-15.37S529,185.48,511.48,177Z" style="fill:#e0e0e0"></path><path d="M423.26,219.55S367,279.82,360,291.25s-11.34,25.16-7.65,35.7c2.6,7.42,10.73,15.71,28.24,15.71,11.31,0,79-8.36,79-8.36l-12.76-59.65L409,287.83s9.17-12.12,16.46-20.4c8.23-9.35,22.71-30.49,22.71-30.49Z" style="fill:#ffbf9d"></path><polygon points="480.82 254.68 412.44 286.64 421.1 353.14 474.95 335.94 481.73 309.55 480.82 254.68" style="fill:#FF725E"></polygon><path d="M475.69,282.44a1.16,1.16,0,0,1,0,.28c0,.21,0,.49,0,.82-.05.76-.12,1.82-.21,3.16-.19,2.78-.46,6.73-.79,11.61-.6,9.84-1.42,23.37-2.33,38.31s-1.91,28.51-2.84,38.29c-.47,4.9-.88,8.85-1.21,11.58-.16,1.33-.29,2.38-.39,3.14,0,.33-.08.6-.11.81s0,.28,0,.28a1,1,0,0,1,0-.28l.06-.82c.07-.76.17-1.82.29-3.15.27-2.74.62-6.7,1-11.59.84-9.79,1.79-23.32,2.69-38.29s1.73-28.51,2.48-38.31c.37-4.9.69-8.86.95-11.6l.31-3.15.09-.81C475.67,282.53,475.69,282.44,475.69,282.44Z" style="fill:#263238"></path><path d="M469.75,211.09c2.32,7.68.19,15.12-4.75,16.61s-10.83-3.52-13.15-11.2-.19-15.12,4.75-16.61S467.43,203.41,469.75,211.09Z" style="fill:#e0e0e0"></path><path d="M477.94,185s1.93,5.31-.57,7.24-6.69.79-7,0-1.25-5.45-1.25-5.45" style="fill:#ffbf9d"></path><path d="M469.09,186.78a21.41,21.41,0,0,1,.8,2.95c.12.47.24,1,.38,1.48a7.36,7.36,0,0,0,.24.8c.06.16.06.18.18.26a1.4,1.4,0,0,0,.34.21,7.26,7.26,0,0,0,3.82.48,4,4,0,0,0,3.13-1.88,6.11,6.11,0,0,0,.43-3.11c-.16-1.85-.55-3-.47-3s.17.25.34.75a11.87,11.87,0,0,1,.5,2.19,6.22,6.22,0,0,1-.37,3.37,4.37,4.37,0,0,1-3.49,2.17,7.43,7.43,0,0,1-4.1-.56,1.91,1.91,0,0,1-.44-.28.92.92,0,0,1-.31-.46c-.09-.3-.16-.58-.22-.85-.13-.55-.23-1-.32-1.51A16.32,16.32,0,0,1,469.09,186.78Z" style="fill:#ff9a6c"></path><ellipse cx="516.79" cy="194.6" rx="6.46" ry="18.35" transform="translate(-34.19 157.71) rotate(-16.8)" style="fill:#e0e0e0"></ellipse><path d="M522,212a8.61,8.61,0,0,1-1.16-.95,14.91,14.91,0,0,1-1.26-1.21c-.47-.5-1-1-1.56-1.72a28.07,28.07,0,0,1-1.72-2.23c-.61-.81-1.15-1.75-1.74-2.72a39,39,0,0,1-3-6.76,38.38,38.38,0,0,1-1.55-7.25,30.76,30.76,0,0,1-.19-3.22,25.49,25.49,0,0,1,.07-2.82c0-.86.17-1.63.25-2.31a15.57,15.57,0,0,1,.31-1.72,7.28,7.28,0,0,1,.38-1.44c.11,0-.41,2.09-.57,5.49,0,.85-.07,1.79,0,2.79s.13,2.06.23,3.18A37.3,37.3,0,0,0,515,202.9c.58,1,1.1,1.9,1.69,2.71s1.12,1.58,1.65,2.25C520.42,210.51,522.06,211.88,522,212Z" style="fill:#263238"></path><g style="opacity:0.7000000000000001"><path d="M465.51,201.73a219.93,219.93,0,0,0,24.81,5.43,73,73,0,0,0,25.28-.42,9.35,9.35,0,0,1,4-.31,2.86,2.86,0,0,1,2.37,2.81c-.19,1.72-2.26,2.42-4,2.75l-12,2.31c-10.47,2-21,4-30.77,8.39-3.91,1.74-8.07,3.9-12.24,2.94-3.82-.87-6.6-4.17-8.46-7.61-1.49-2.75-2.6-5.86-2.17-9s2.8-6.07,5.92-6.36" style="fill:#fff"></path></g><path d="M469.75,211.09c-.06,0-.34-1-1.14-2.74a22.25,22.25,0,0,0-1.75-3,15.57,15.57,0,0,0-3.09-3.35,9,9,0,0,0-5-2.12,6.17,6.17,0,0,0-2.93.55,6.92,6.92,0,0,0-2.43,2,9.38,9.38,0,0,0-1.54,3,13.83,13.83,0,0,0-.67,3.5,21.31,21.31,0,0,0,4.27,14.14,14.06,14.06,0,0,0,2.5,2.55,9.51,9.51,0,0,0,2.95,1.66,6.84,6.84,0,0,0,3.15.34,6.07,6.07,0,0,0,2.74-1.16,9,9,0,0,0,3-4.51,16.15,16.15,0,0,0,.72-4.51,21.71,21.71,0,0,0-.21-3.47c-.3-1.89-.63-2.9-.57-2.92a4.69,4.69,0,0,1,.25.73,20.48,20.48,0,0,1,.52,2.16,20.94,20.94,0,0,1,.3,3.5,15.73,15.73,0,0,1-.66,4.62,9.31,9.31,0,0,1-3.06,4.74,6.48,6.48,0,0,1-2.93,1.28,7.4,7.4,0,0,1-3.38-.35,10,10,0,0,1-3.1-1.72,14.29,14.29,0,0,1-2.59-2.62,21.67,21.67,0,0,1-4.38-14.5,14.08,14.08,0,0,1,.71-3.62,9.94,9.94,0,0,1,1.63-3.15,7.21,7.21,0,0,1,2.62-2.15,6.48,6.48,0,0,1,3.15-.57A9.31,9.31,0,0,1,464,201.7a15.53,15.53,0,0,1,3.1,3.48,19.66,19.66,0,0,1,1.69,3.08,18.83,18.83,0,0,1,.76,2.09A3.81,3.81,0,0,1,469.75,211.09Z" style="fill:#263238"></path><path d="M446.86,196a9.7,9.7,0,0,0,2.49.91s-.9,7.94,2.39,8.74,2.72-.69,3.85-3,1-8.63,1.14-11-2.88-3.95-2.88-3.95" style="fill:#ffbf9d"></path><path d="M453.85,187.71a3.43,3.43,0,0,1,1.17.68,5.84,5.84,0,0,1,1.15,1.14,3.45,3.45,0,0,1,.74,2c0,1.56,0,3.41-.12,5.47-.05,1-.13,2.12-.29,3.24a11.77,11.77,0,0,1-.37,1.7,5.12,5.12,0,0,1-.32.85c-.13.26-.24.52-.35.79l-.39,1.07a2.36,2.36,0,0,1-.67,1,1.89,1.89,0,0,1-1.19.36,5.62,5.62,0,0,1-1.11-.14,4.09,4.09,0,0,1-1.07-.36l-.44-.35a2.63,2.63,0,0,1-.35-.41,5.24,5.24,0,0,1-.81-1.84,17.83,17.83,0,0,1-.21-6.12l.1.15c-1.65-.45-2.55-.93-2.46-1.05a2.64,2.64,0,0,0,.63.27c.43.14,1.07.31,1.9.51l.11,0v.13a19.34,19.34,0,0,0,.38,6,4.83,4.83,0,0,0,.75,1.67,3,3,0,0,0,.66.63,4.33,4.33,0,0,0,.92.29,2.49,2.49,0,0,0,1.88-.13,5.25,5.25,0,0,0,.9-1.9c1.11-2.11,1.16-4.39,1.33-6.42s.15-3.9.23-5.45a3.11,3.11,0,0,0-.61-1.86,6,6,0,0,0-1-1.15C454.25,188,453.83,187.75,453.85,187.71Z" style="fill:#ff9a6c"></path><path d="M466.68,182.51s1.89,1.87,1.05,6.2c-.53,2.73-1.13,10.78-2.49,12.71s-4.41,1.57-5.45.68-.57-9.48,0-11.23l-1.29,1.82" style="fill:#ffbf9d"></path><path d="M458.5,192.69a2.63,2.63,0,0,1,.28-.5c.25-.38.55-.83.91-1.39l.36-.54-.15.65a36.75,36.75,0,0,0-.47,6.93c0,.74,0,1.52.1,2.32.05.39.1.79.19,1.18a1,1,0,0,0,.61.82c1.41.67,3.59.58,4.65-.85a10.9,10.9,0,0,0,1.16-3.62c.25-1.24.43-2.45.6-3.61.32-2.31.58-4.42.93-6.15a8.46,8.46,0,0,0-.31-4.06,7.42,7.42,0,0,0-.68-1.36,2.77,2.77,0,0,1,.87,1.28A8.25,8.25,0,0,1,468,188c-.31,1.76-.52,3.84-.83,6.17-.15,1.16-.33,2.38-.57,3.64-.11.63-.26,1.27-.43,1.91a6.26,6.26,0,0,1-.81,1.92,3.64,3.64,0,0,1-2.55,1.41,4.86,4.86,0,0,1-2.75-.43,1.53,1.53,0,0,1-.58-.46.9.9,0,0,1-.18-.35c0-.11-.07-.22-.1-.33a11.58,11.58,0,0,1-.18-1.26c-.06-.82-.07-1.61-.07-2.36a30.73,30.73,0,0,1,.69-7l.21.11-1,1.32C458.65,192.56,458.52,192.7,458.5,192.69Z" style="fill:#ff9a6c"></path><path d="M409.51,287.28a9.54,9.54,0,0,1-.36,1.69,19.57,19.57,0,0,1-.54,1.95c-.24.75-.48,1.61-.84,2.54a56.35,56.35,0,0,1-2.77,6.4,61.88,61.88,0,0,1-4.42,7.31,62.58,62.58,0,0,1-5.46,6.57,54.38,54.38,0,0,1-5.14,4.71c-.75.65-1.49,1.16-2.12,1.63s-1.2.86-1.67,1.15a9.91,9.91,0,0,1-1.47.89,11.61,11.61,0,0,1,1.36-1.05c.45-.33,1-.72,1.6-1.22s1.33-1,2.07-1.68a61.65,61.65,0,0,0,5-4.76,69.38,69.38,0,0,0,5.38-6.54,68,68,0,0,0,4.42-7.23,62.89,62.89,0,0,0,2.85-6.31c.38-.91.64-1.76.91-2.5s.46-1.39.62-1.92A12.57,12.57,0,0,1,409.51,287.28Z" style="fill:#ff9a6c"></path></g><g id="freepik--character-1--inject-12"><path d="M234.29,286.39a67.08,67.08,0,0,1,31.92,18.73,71.3,71.3,0,0,0,13.48,11.17,110.19,110.19,0,0,0,14.49,8.14c10.39,4.57,7.59,3.24,7.59,3.24L279.3,281.83,304,270.2s33.59,57.69,38.2,68.85,1.75,34.89-10.57,37.14c-11.75,2.14-37.24-4.13-46.66-8.36-11-4.91-32.7-13.09-32.7-13.09Z" style="fill:#ae7461"></path><path d="M261,261.21s-7.07-2.53-8.88,0-1,4.35,1,5.62,2.06-1.08,6.05,1.09,18.62,16.6,21.88,15.69-4.12-13.51-4.12-13.51Z" style="fill:#ae7461"></path><path d="M267.33,266.65A106.82,106.82,0,0,0,278,281.88c4,4.35,11.78,12.68,11.78,12.68l20.89-11.42-6.76-11.73s-1.44-21.52-2.17-24.42-5.26-3.36-5.26-3.36-1.45-6.34-5.44-7.61-5.07,0-5.07,0-4.17-7.43-6.71-7.79-7.06,2-7.06,2A3.87,3.87,0,0,0,269,226.6c-3.26-.73-7.07,1.63-7.07,1.63l-2.17,6.89Z" style="fill:#ae7461"></path><path d="M301.77,279.31a11.53,11.53,0,0,1-2.72.92,35.68,35.68,0,0,1-6.87,1,35.18,35.18,0,0,1-6.94-.32,12,12,0,0,1-2.81-.63,25.23,25.23,0,0,1,2.85.27,45,45,0,0,0,13.69-.73A24.31,24.31,0,0,1,301.77,279.31Z" style="fill:#6f4439"></path><ellipse cx="235.2" cy="232.98" rx="17.89" ry="4.18" transform="translate(-79.68 335.21) rotate(-62.71)" style="fill:#e0e0e0"></ellipse><path d="M227.24,249l55.08,25.65c9.7-5.9,14.41-15.43,13.26-25.71l-51.89-31.79Z" style="fill:#e0e0e0"></path><path d="M238.91,234.9a4.19,4.19,0,0,1-.31.71c-.22.45-.56,1.12-1,2a57,57,0,0,1-4.42,6.89,19.6,19.6,0,0,1-3.95,4.08,3.66,3.66,0,0,1-1.49.65,1.35,1.35,0,0,1-.91-.18,1.45,1.45,0,0,1-.58-.72,7.07,7.07,0,0,1-.11-3.42,36.17,36.17,0,0,1,2-6.91,71.07,71.07,0,0,1,3.17-7,68.71,68.71,0,0,1,3.89-6.65,35.67,35.67,0,0,1,4.48-5.62,7,7,0,0,1,2.85-1.89,1.56,1.56,0,0,1,.93.05,1.44,1.44,0,0,1,.67.64,3.72,3.72,0,0,1,.34,1.6,19.5,19.5,0,0,1-1,5.58,54.58,54.58,0,0,1-3.06,7.59c-.42.87-.77,1.53-1,2a4.32,4.32,0,0,1-.4.67,4.73,4.73,0,0,1,.31-.72l.92-2a62.52,62.52,0,0,0,2.89-7.61,19.78,19.78,0,0,0,1-5.47,3.41,3.41,0,0,0-.3-1.4.92.92,0,0,0-1.11-.46A6.8,6.8,0,0,0,240,219a36,36,0,0,0-4.4,5.56,71.18,71.18,0,0,0-3.85,6.61,72.07,72.07,0,0,0-3.15,7,36.15,36.15,0,0,0-2,6.81,6.7,6.7,0,0,0,.06,3.16.91.91,0,0,0,1,.64,3.18,3.18,0,0,0,1.31-.57,19.64,19.64,0,0,0,3.9-3.95,62.15,62.15,0,0,0,4.53-6.76l1.11-1.92A5.36,5.36,0,0,1,238.91,234.9Z" style="fill:#263238"></path><path d="M295.48,250.29c.06.07-1.23,1-3.06,2.75a37.31,37.31,0,0,0-3,3.26,39.53,39.53,0,0,0-3.12,4.46,40.57,40.57,0,0,0-2.41,4.87,36.53,36.53,0,0,0-1.41,4.22c-.66,2.44-.85,4-1,4a4.87,4.87,0,0,1,.07-1.11,23.84,23.84,0,0,1,.52-3,31,31,0,0,1,1.33-4.31,36,36,0,0,1,2.4-5A35.48,35.48,0,0,1,289,256a31.6,31.6,0,0,1,3.13-3.23,23.61,23.61,0,0,1,2.37-1.89A4.24,4.24,0,0,1,295.48,250.29Z" style="fill:#263238"></path><path d="M234.14,249s47,23.05,47.37,22.79,8.7-5.42,10.48-11.72.9-9.78.9-9.78-14.53-8.59-17.31-9.47-17.12,2.89-21.22,2.69-9.75-1.82-15.09-.11C235.2,244.71,234.14,249,234.14,249Z" style="fill:#fff"></path><path d="M313.4,337.51a12.3,12.3,0,0,1-1.8-1.61c-1.08-1-2.59-2.41-4.32-3.87s-3.35-2.7-4.54-3.59a13.53,13.53,0,0,1-1.9-1.49,9.5,9.5,0,0,1,2.11,1.19,51.59,51.59,0,0,1,8.91,7.5A10.14,10.14,0,0,1,313.4,337.51Z" style="fill:#6f4439"></path><path d="M272.73,230.21c-1.41.82-6.63,3.94-8,4.76a2.57,2.57,0,0,0-1.2,1.1,2.12,2.12,0,0,0,.29,1.8c1.52,2.64,4.92,2.6,7.88,1.86s8.21-2.23,10.19-4.54" style="fill:#ae7461"></path><path d="M286.51,235.71c-2.47.66-6,2.66-7.25,4.87-.19.32-.9,1.51-.81,1.87a1.6,1.6,0,0,0,.44.65,3.64,3.64,0,0,0,1.57,1.13,3.31,3.31,0,0,0,1.4,0,24.66,24.66,0,0,0,9.76-3.84Z" style="fill:#ae7461"></path><path d="M263.56,227.56a2.65,2.65,0,0,0-2.33,1.67,4,4,0,0,0,.07,3,3.29,3.29,0,0,0,1.4,1.71,4,4,0,0,0,2.48.22,12.35,12.35,0,0,0,6.22-3Z" style="fill:#ae7461"></path><path d="M275.12,228.93c.06.15-2.79,1.25-6,3.16s-5.57,3.87-5.67,3.75a6.87,6.87,0,0,1,1.44-1.41,30.71,30.71,0,0,1,8.33-4.92A6.69,6.69,0,0,1,275.12,228.93Z" style="fill:#6f4439"></path><path d="M286.21,235.88a31.17,31.17,0,0,0-4.2,2.33,30.18,30.18,0,0,0-3.44,3.35,10.36,10.36,0,0,1,7.64-5.68Z" style="fill:#6f4439"></path><path d="M302.19,249.55a5.85,5.85,0,0,0-1.51-4.51,7.28,7.28,0,0,0-3.25-1.45l-7.83-2.06a3.32,3.32,0,0,0-1.46-.17,2.32,2.32,0,0,0-1.45,2.95,6,6,0,0,0,2.33,2.8c4.18,3.19,7.43,6.22,12.58,7.33H302A42.09,42.09,0,0,1,302.19,249.55Z" style="fill:#ae7461"></path><path d="M298.65,253.33a4.33,4.33,0,0,1-1-.43c-.64-.31-1.55-.77-2.67-1.38s-2.44-1.35-3.88-2.21c-.72-.44-1.47-.91-2.23-1.44a7.19,7.19,0,0,1-2-2.07,3.59,3.59,0,0,1-.46-2.91,2.54,2.54,0,0,1,2-1.9,5.91,5.91,0,0,1,2.45.21c.73.18,1.4.38,2,.57a27,27,0,0,1,2.82,1.08,4.2,4.2,0,0,1,1,.53c0,.08-1.48-.57-3.91-1.26-.6-.17-1.27-.34-2-.5a5.71,5.71,0,0,0-2.26-.16,2,2,0,0,0-1.59,1.57,3.16,3.16,0,0,0,.41,2.5c1,1.57,2.71,2.45,4.08,3.37s2.72,1.65,3.81,2.3l2.59,1.52A5,5,0,0,1,298.65,253.33Z" style="fill:#6f4439"></path><path d="M118.52,356.25l35.06,95.5-5.07,16.63-4.77,5.69H269s-9.28-47.49-9.28-62.37c0-4.69,4.33-30.3,4.33-50.16,0-15.81-8.31-36.56-13-47.24-1.52-3.5-16.8-27.91-16.8-27.91l-28.59-3.81-47.62,3.56-39.56,19.59Z" style="fill:#FF725E"></path><path d="M132.46,185.89l6.43-28.23c-3.66-11.59-19.48-9.29-28.58-3.67S94.9,169,91.45,179.11s-4.22,20.95-4.06,31.63c.2,12.8,1.57,26.31-4.17,37.75-3,5.89-7.74,11.08-8.77,17.59a16.84,16.84,0,0,0,11.74,18.2,16.82,16.82,0,0,0,19.4-9.64c.42,6.34,6.1,11.61,12.38,12.52s12.73-2,17-6.73,6.56-10.92,7.5-17.19C146.34,237.33,128.81,211.83,132.46,185.89Z" style="fill:#263238"></path><path d="M125.31,165.7c1.22-3.26,2.48-6.58,4.64-9.32s5.39-4.86,8.88-4.81a4.81,4.81,0,0,1,4.22,2.07c.8,1.44,0,3.68-1.62,3.83l-.29.35q-4.54,5.7-9.32,11.23a9.54,9.54,0,0,1-2.72,2.43,3.3,3.3,0,0,1-3.48-.13C124,170.09,124.6,167.6,125.31,165.7Z" style="fill:#455a64"></path><path d="M120.6,178.66c9.38-16.7,24-27.92,42.75-31.54,10.61-2,15.4-.6,23.43.12s15.66,3.62,21.37,9.31c6.78,6.75,12.86,14.58,15.53,23.77,2.74,9.44,5.5,19,6.47,28.73s0,20-4.26,28.8l-23.82,8.58c-13.49,2.85-27.17,5.71-40.93,4.93s-27.86-5.63-37-16C111.51,221,111.22,195.35,120.6,178.66Z" style="fill:#263238"></path><path d="M142.43,174.66l30.47-18.77,8.73-.5c19.27-3.32,36.27,15.59,39.14,31.16,3.18,17.3,6.38,38.55,5.87,51.8C225.61,265,204.07,271,204.07,271s.9,4.08,2.58,12.67h0c-3.63,14.2-25.69,17.77-47.14,6l-.84-.92L135.32,185A9.25,9.25,0,0,1,142.43,174.66Z" style="fill:#ae7461"></path><path d="M216.2,209.53a3.37,3.37,0,0,1-2.83,3.77,3.24,3.24,0,0,1-3.82-2.61,3.38,3.38,0,0,1,2.83-3.77A3.22,3.22,0,0,1,216.2,209.53Z" style="fill:#263238"></path><path d="M216.42,196.24c-.37.49-3.13-1.09-6.74-.65s-6,2.56-6.48,2.17c-.22-.17.11-1,1.17-2a9.25,9.25,0,0,1,5.12-2.28,8.93,8.93,0,0,1,5.43,1.07C216.13,195.27,216.6,196,216.42,196.24Z" style="fill:#263238"></path><path d="M198.37,228.31c-.05-.2,2.15-.86,5.73-1.76.91-.2,1.76-.49,1.84-1.14a4.67,4.67,0,0,0-.94-2.66l-3.56-6.69c-5-9.54-8.7-17.43-8.32-17.62s4.74,7.37,9.72,16.91c1.2,2.36,2.35,4.6,3.45,6.75.47,1,1.22,2.12.91,3.56a2.34,2.34,0,0,1-1.35,1.53,6.27,6.27,0,0,1-1.54.4C200.67,228.22,198.4,228.51,198.37,228.31Z" style="fill:#263238"></path><path d="M204.11,270.94A67,67,0,0,1,168,265.79s11.5,17,37.38,11.43Z" style="fill:#6f4439"></path><path d="M213,183.94c-.5.95-3.33.69-6.53,1.34s-5.77,1.83-6.57,1.12c-.37-.35-.12-1.25.9-2.27a10.32,10.32,0,0,1,10.56-2C212.67,182.73,213.22,183.48,213,183.94Z" style="fill:#263238"></path><path d="M177.88,215.25a3.39,3.39,0,0,0,3.75,2.86,3.24,3.24,0,0,0,3-3.55,3.39,3.39,0,0,0-3.75-2.86A3.24,3.24,0,0,0,177.88,215.25Z" style="fill:#263238"></path><path d="M167.8,203.35c.48.37,2.71-1.9,6.31-2.46s6.5.83,6.82.33c.16-.23-.38-.95-1.66-1.6a9.24,9.24,0,0,0-5.55-.8,9,9,0,0,0-4.94,2.5C167.81,202.34,167.56,203.18,167.8,203.35Z" style="fill:#263238"></path><path d="M167.94,191.52c.83.7,3.47-.58,6.79-1.15S181,190,181.49,189c.22-.46-.36-1.21-1.71-1.79a10.52,10.52,0,0,0-5.75-.46,10.34,10.34,0,0,0-5.17,2.49C167.82,190.27,167.56,191.17,167.94,191.52Z" style="fill:#263238"></path><path d="M147.41,227.72c-.24-1.94-3-6.27-5-6.34-5.23-.19-14.44,1.33-13,14.39,2,17.84,19.52,12.14,19.49,11.63S148.23,234.44,147.41,227.72Z" style="fill:#ae7461"></path><path d="M143.27,241.43c-.08-.05-.29.25-.78.55a3.07,3.07,0,0,1-2.32.31c-2-.47-3.89-3.29-4.34-6.5a10.33,10.33,0,0,1,.37-4.55,3.6,3.6,0,0,1,2.07-2.64,1.58,1.58,0,0,1,1.93.64c.29.47.22.84.32.86s.35-.34.12-1.06a1.94,1.94,0,0,0-.83-1,2.33,2.33,0,0,0-1.77-.26,4.38,4.38,0,0,0-2.93,3.13,10.58,10.58,0,0,0-.52,5.1c.52,3.58,2.74,6.74,5.4,7.19a3.33,3.33,0,0,0,2.79-.79C143.29,241.87,143.34,241.46,143.27,241.43Z" style="fill:#6f4439"></path><path d="M141.7,221.56l5.3,3.86c16.12-21.94,45.83-75,44.2-71.87,0,0-14.23-3.12-28.2,1.86s-40,17-36.63,33.9S141.7,221.56,141.7,221.56Z" style="fill:#263238"></path><path d="M115.36,222.16a4.79,4.79,0,0,1,.09-1.07,18.86,18.86,0,0,1,.72-3,26,26,0,0,1,5.92-9.6c3.23-3.56,8-6.85,13.6-9.75s12-5.62,18-9.57a87.83,87.83,0,0,0,15.72-12.84,91,91,0,0,0,10.43-12.92,99.72,99.72,0,0,0,5.63-9.7c.55-1.12,1-2,1.35-2.74a4.56,4.56,0,0,1,.52-.94,5.29,5.29,0,0,1-.35,1c-.27.65-.64,1.62-1.2,2.83a81.79,81.79,0,0,1-5.41,9.9A87.44,87.44,0,0,1,170,176.93a86.12,86.12,0,0,1-15.84,13c-6.12,4-12.57,6.65-18.11,9.55s-10.28,6-13.52,9.45a26.92,26.92,0,0,0-6,9.27C115.61,220.7,115.46,222.18,115.36,222.16Z" style="fill:#455a64"></path><path d="M121,224a9.45,9.45,0,0,1,0-4,18.3,18.3,0,0,1,5.17-9.48c3.2-3.39,8.17-6,13.72-8.36a88.29,88.29,0,0,0,17.29-9,79,79,0,0,0,14.55-12.94,80.23,80.23,0,0,0,9.26-13,85.77,85.77,0,0,0,4.73-9.67c.43-1.11.79-2,1.06-2.73a5.16,5.16,0,0,1,.43-.94,4,4,0,0,1-.25,1c-.24.73-.54,1.66-.9,2.8a73.07,73.07,0,0,1-4.51,9.86A77,77,0,0,1,157.7,194a86.05,86.05,0,0,1-17.48,9c-5.55,2.29-10.42,4.8-13.59,8a18.52,18.52,0,0,0-5.28,9.09A20.75,20.75,0,0,0,121,224Z" style="fill:#455a64"></path><path d="M147.53,251.35c0-.13-1.56-.06-4.29-.28a25.69,25.69,0,0,1-10.85-3.79c-4.2-2.52-8.3-6.87-11.64-12.43a62.63,62.63,0,0,1-7.4-19.7,48.38,48.38,0,0,1,.22-20.93,51.85,51.85,0,0,1,6.65-15.85c5.31-8.34,10.27-12.2,10-12.41a4,4,0,0,0-.88.68c-.55.49-1.4,1.16-2.37,2.16a54.29,54.29,0,0,0-7.49,9.12,50.87,50.87,0,0,0-7,16.05,48.46,48.46,0,0,0-.32,21.41,62.29,62.29,0,0,0,7.63,20c3.46,5.66,7.75,10.08,12.14,12.58a24.8,24.8,0,0,0,11.24,3.54,24.1,24.1,0,0,0,3.22-.05A4.26,4.26,0,0,0,147.53,251.35Z" style="fill:#455a64"></path><path d="M187.33,234.15a2.87,2.87,0,0,0-1.63-.3,2.32,2.32,0,0,0-1.23.91,6.15,6.15,0,0,0,5.76,9.87c2.42-.37,5.08-2.17,5.89-6.76C193.36,236.78,190.08,235.24,187.33,234.15Z" style="fill:#6f4439"></path><path d="M190.26,244.8a9.06,9.06,0,0,1-3.72-1,5.72,5.72,0,0,1-2.56-3.07,6.05,6.05,0,0,1,.4-4.81c.43-.75,1-1.5,1.64-1.49a7.6,7.6,0,0,1,2.27.74l4,1.6a18.14,18.14,0,0,0,3.81,1.28,17.28,17.28,0,0,0-3.58-1.86l-4-1.78a7.24,7.24,0,0,0-2.59-.85,2.2,2.2,0,0,0-1.49.71,5.91,5.91,0,0,0-.9,1.22,6.71,6.71,0,0,0-.4,5.51,6.18,6.18,0,0,0,3,3.35C188.63,245.51,190.33,244.85,190.26,244.8Z" style="fill:#263238"></path><path d="M122.61,303.75h-2.07S100.28,311.87,94.91,326,81.56,474.52,81.56,474.52h37.15l9.43-96.36S148.65,314.5,122.61,303.75Z" style="fill:#ae7461"></path><path d="M208.12,422.1a367.34,367.34,0,0,1,37.14-31.89" style="fill:#263238"></path><path d="M245.26,390.21s-.11.13-.36.34l-1.11.9-4.11,3.27c-3.47,2.75-8.22,6.61-13.35,11s-9.66,8.52-12.91,11.53l-3.85,3.57-1.06,1a2.2,2.2,0,0,1-.39.31,2.05,2.05,0,0,1,.32-.39c.27-.27.59-.61,1-1,.86-.89,2.14-2.15,3.73-3.69,3.19-3.08,7.69-7.24,12.83-11.65s9.93-8.23,13.46-10.91c1.76-1.35,3.21-2.42,4.22-3.14l1.16-.82A2.32,2.32,0,0,1,245.26,390.21Z" style="fill:#263238"></path><polygon points="153.58 451.75 262.67 438.06 269 474.07 143.74 474.07 148.51 468.38 153.58 451.75" style="fill:#ae7461"></polygon></g></svg>
